<svg viewBox="0 0 32 32" fill="none" xmlns="http://www.w3.org/2000/svg">
  <defs>
    <clipPath id="brainclip">
      <path d="M16 3.4C13 2.9 10 3.9 8.4 5.9 5.8 5.8 3.7 8 3.9 10.9c-1.5 1.2-1.6 3.6-.1 5.1-1.2 1.5-1 3.9.7 5.2.2 2.7 2.6 4.5 5.2 4 1.6 1.6 3.6 2.2 5.8 1.9h1c2.2.3 4.2-.3 5.8-1.9 2.6.5 5-1.3 5.2-4 1.7-1.3 1.9-3.7.7-5.2 1.5-1.5 1.4-3.9-.1-5.1.2-2.9-1.9-5.1-4.5-5C22 3.9 19 2.9 16 3.4Z"/>
    </clipPath>
  </defs>
  <path d="M16 3.4C13 2.9 10 3.9 8.4 5.9 5.8 5.8 3.7 8 3.9 10.9c-1.5 1.2-1.6 3.6-.1 5.1-1.2 1.5-1 3.9.7 5.2.2 2.7 2.6 4.5 5.2 4 1.6 1.6 3.6 2.2 5.8 1.9V3.4Z" fill="#ffffff"/>
  <path d="M16 3.4C19 2.9 22 3.9 23.6 5.9c2.6-.1 4.7 2.1 4.5 5 1.5 1.2 1.6 3.6.1 5.1 1.2 1.5 1 3.9-.7 5.2-.2 2.7-2.6 4.5-5.2 4-1.6 1.6-3.6 2.2-5.8 1.9V3.4Z" fill="#000000"/>
  <g clip-path="url(#brainclip)" stroke-linecap="round" stroke-linejoin="round" fill="none">
    <g stroke="#000000" stroke-width="0.75">
      <path d="M16 6.2C14.8 7.2 14.2 8.6 14.6 10c-.9.9-1.6 2-1.3 3.4-.9.8-1.4 2-1 3.3-.8.9-1.1 2.2-.5 3.4-.6 1-.6 2.3.2 3.2-.2 1.2.3 2.4 1.4 3"/>
      <path d="M14.6 10C13 10.4 11.6 11.2 10.6 12.4"/>
      <path d="M13.3 13.4C11.7 13.6 10.3 14.4 9.4 15.7"/>
      <path d="M12.3 16.7C10.8 16.7 9.4 17.3 8.4 18.4"/>
      <path d="M12.8 20.1C11.4 19.9 10.1 20.4 9 21.3"/>
      <path d="M14.7 22.9C13.4 22.4 12 22.4 10.7 22.9"/>
      <path d="M14.6 10C13.6 9 13.6 7.6 14.2 6.4"/>
      <path d="M10.6 12.4C9.4 11.8 8.1 11.8 7 12.4"/>
      <path d="M9.4 15.7C8.1 15.5 6.9 16 6.2 17"/>
      <path d="M8.4 18.4C7.1 18.6 6.1 19.4 5.6 20.5"/>
      <path d="M9 21.3C7.7 21.1 6.5 21.4 5.6 22.2"/>
      <path d="M12.4 14.6c.9.6 1.1 1.7.6 2.6"/>
      <path d="M11 18.2c1 .4 1.5 1.4 1.3 2.4"/>
    </g>
    <g stroke="#ffffff" stroke-width="0.75">
      <path d="M16 6.2C17.2 7.2 17.8 8.6 17.4 10c.9.9 1.6 2 1.3 3.4.9.8 1.4 2 1 3.3.8.9 1.1 2.2.5 3.4.6 1 .6 2.3-.2 3.2.2 1.2-.3 2.4-1.4 3"/>
      <path d="M17.4 10C19 10.4 20.4 11.2 21.4 12.4"/>
      <path d="M18.7 13.4C20.3 13.6 21.7 14.4 22.6 15.7"/>
      <path d="M19.7 16.7C21.2 16.7 22.6 17.3 23.6 18.4"/>
      <path d="M19.2 20.1C20.6 19.9 21.9 20.4 23 21.3"/>
      <path d="M17.3 22.9C18.6 22.4 20 22.4 21.3 22.9"/>
      <path d="M17.4 10C18.4 9 18.4 7.6 17.8 6.4"/>
      <path d="M21.4 12.4C22.6 11.8 23.9 11.8 25 12.4"/>
      <path d="M22.6 15.7C23.9 15.5 25.1 16 25.8 17"/>
      <path d="M23.6 18.4C24.9 18.6 25.9 19.4 26.4 20.5"/>
      <path d="M23 21.3C24.3 21.1 25.5 21.4 26.4 22.2"/>
      <path d="M19.6 14.6c-.9.6-1.1 1.7-.6 2.6"/>
      <path d="M21 18.2c-1 .4-1.5 1.4-1.3 2.4"/>
    </g>
  </g>
  <path d="M16 3.4C13 2.9 10 3.9 8.4 5.9 5.8 5.8 3.7 8 3.9 10.9c-1.5 1.2-1.6 3.6-.1 5.1-1.2 1.5-1 3.9.7 5.2.2 2.7 2.6 4.5 5.2 4 1.6 1.6 3.6 2.2 5.8 1.9h1c2.2.3 4.2-.3 5.8-1.9 2.6.5 5-1.3 5.2-4 1.7-1.3 1.9-3.7.7-5.2 1.5-1.5 1.4-3.9-.1-5.1.2-2.9-1.9-5.1-4.5-5C22 3.9 19 2.9 16 3.4Z" stroke="#000000" stroke-width="1.5" stroke-linejoin="round" fill="none"/>
  <path d="M16 3.4v22.6" stroke="#000000" stroke-width="1.2" stroke-linecap="round" fill="none"/>
</svg>
